inDegrees=no
num_controls=7
num_derivatives=13
num_iterations=159
num_multipliers=7
num_parameters=0
num_slacks=7
num_states=26
objective=0.672407
objective_accelerations=0.093878
objective_balance=0.003660
objective_effort=0.073924
objective_height=0.489740
objective_ligament=0.011205
solver_duration=2147.220828
status=Solve_Succeeded
success=true
DataType=double
version=3
OpenSimVersion=4.5
endheader
time	/jointset/ground_pelvis/pelvis_tilt/value	/jointset/ground_pelvis/pelvis_tx/value	/jointset/ground_pelvis/pelvis_ty/value	/jointset/hip_l/hip_flexion_l/value	/jointset/hip_l/hip_adduction_l/value	/jointset/hip_l/hip_rotation_l/value	/jointset/back/lumbar_extension/value	/jointset/patellofemoral_l/patellar_flexion_l/value	/jointset/knee_l/knee_flexion_l/value	/jointset/knee_l/knee_adduction_l/value	/jointset/knee_l/knee_rotation_l/value	/jointset/ankle_l/ankle_angle_l/value	/jointset/subtalar_l/subtalar_angle_l/value	/jointset/ground_pelvis/pelvis_tilt/speed	/jointset/ground_pelvis/pelvis_tx/speed	/jointset/ground_pelvis/pelvis_ty/speed	/jointset/hip_l/hip_flexion_l/speed	/jointset/hip_l/hip_adduction_l/speed	/jointset/hip_l/hip_rotation_l/speed	/jointset/back/lumbar_extension/speed	/jointset/patellofemoral_l/patellar_flexion_l/speed	/jointset/knee_l/knee_flexion_l/speed	/jointset/knee_l/knee_adduction_l/speed	/jointset/knee_l/knee_rotation_l/speed	/jointset/ankle_l/ankle_angle_l/speed	/jointset/subtalar_l/subtalar_angle_l/speed	/forceset/tau_hip_flexion_l	/forceset/tau_hip_adduction_l	/forceset/tau_hip_rotation_l	/forceset/tau_knee_flexion_l	/forceset/tau_ankle_angle_l	/forceset/tau_subtalar_angle_l	/forceset/tau_lumbar_extension	lambda_cid13_p0	lambda_cid13_p1	lambda_cid13_p2	lambda_cid13_p3	lambda_cid13_p4	lambda_cid13_p5	lambda_cid14_p0	/jointset/ground_pelvis/pelvis_tilt/accel	/jointset/ground_pelvis/pelvis_tx/accel	/jointset/ground_pelvis/pelvis_ty/accel	/jointset/hip_l/hip_flexion_l/accel	/jointset/hip_l/hip_adduction_l/accel	/jointset/hip_l/hip_rotation_l/accel	/jointset/back/lumbar_extension/accel	/jointset/patellofemoral_l/patellar_flexion_l/accel	/jointset/knee_l/knee_flexion_l/accel	/jointset/knee_l/knee_adduction_l/accel	/jointset/knee_l/knee_rotation_l/accel	/jointset/ankle_l/ankle_angle_l/accel	/jointset/subtalar_l/subtalar_angle_l/accel	gamma_cid13_p0	gamma_cid13_p1	gamma_cid13_p2	gamma_cid13_p3	gamma_cid13_p4	gamma_cid13_p5	gamma_cid14_p0
1.5	-0.1923137506178087	-0.1153331385585959	0.7760582398435427	1.128937647015299	-0.3154727097658448	-0.1073864325594909	-0.851371496596363	0.8824676956116734	0.8824676956116647	-0.0724915421454936	-0.1745040909505942	0.006453716925959163	-0.02016669620293352	0.8035760298607216	0.3816834189641893	0.7273380846571832	-3.103781048974568	0.04489709341870477	-0.6643950810232128	0.7783614694841157	-2.250330807413977	-2.250330807414011	-0.2294796072837886	0.002060435735018053	-0.07547772503032174	0.03038657047039778	-0.3447338470434292	-0.002537927046055815	-0.007385537390435083	-0.200337318252733	0.188025469954704	0.0602289970989036	0.3723649980950052	18.16674838345578	-28.79488169978081	3.515647742370083	-26.66726464708684	-673.2516001213878	-76.36967544215065	-11.28228800282204	0.889018936164083	1.405548687350298	-0.7391033030374311	-1.903682003142921	0.6270746076319088	-0.4521849119465675	3.01464483453505	-1.294686023794134	-1.294686023794135	-0.1463501423104437	0.1405849489489405	-0.2625390840801486	0.5618618669232601	6.491892849290082e-07	2.634687089824988e-07	-3.554600208881998e-06	-3.523810157733418e-07	6.796877683481121e-07	-1.17492365950153e-06	5.461842692788178e-07
1.51	-0.1842341289829291	-0.1114461226971498	0.7832931244004513	1.097807099199205	-0.3149943481812306	-0.114049661892497	-0.8434387075188192	0.859902446005077	0.8599024460050656	-0.07479895251019142	-0.1744765836719592	0.005686121242254955	-0.01983672385829925	0.8122071003517544	0.395700494771377	0.7194763662035047	-3.121936758493266	0.05076982200691377	-0.6681747579599167	0.8081236502857537	-2.262405358382947	-2.26240535838295	-0.2320010090800193	0.003455236671079025	-0.07795616849838792	0.03562805005865462	-0.3324640055308681	-0.002065722513262435	-0.007114198849966055	-0.1964325557702083	0.1839262588063962	0.05952671971681705	0.3616354184646164	17.35575486862204	-28.48970567319619	3.628987582454804	-26.06403424240334	-664.7534016965878	-76.3190160947357	-12.17803426507005	0.8290525870203715	1.396826129725504	-0.833920346089945	-1.712649560210771	0.5669202964451949	-0.3289091047793122	2.946100342144231	-1.116888743080162	-1.11688874307536	-0.3048114988279826	0.1403287569053991	-0.2277159701549895	0.5086619109219814	6.696212824277662e-07	3.506402649499451e-07	-3.538037305580971e-06	-3.577878278444903e-07	7.420942080561194e-07	-1.084594345148758e-06	5.567480019603879e-07
1.52	-0.1760724163468497	-0.1074195282571674	0.7904445489269116	1.066506767461128	-0.3144573496483283	-0.1207482979989195	-0.8352104775054258	0.8372258410668645	0.8372258410668508	-0.07713153215296129	-0.1744348481657695	0.004896297325473057	-0.01945366253655339	0.8199942301006875	0.4095991346714647	0.7106460785675502	-3.137737833371061	0.05662448307631521	-0.6714764357064997	0.8374496566540337	-2.272601873737182	-2.272601873737153	-0.234513462898194	0.004906081245968951	-0.07992337164585964	0.04100436589271491	-0.320194164018307	-0.001593517980469072	-0.006842860309497274	-0.1925277932876836	0.1798270476580884	0.05882444233473049	0.3509058388342275	16.5407811847079	-28.18476855282585	3.743437896148299	-25.48550110390264	-656.3431028990432	-76.36740033760739	-13.06023030861485	0.7202307877441575	1.381861505930307	-0.9328171394926794	-1.43275507496218	0.6234611038703989	-0.3565850739223838	2.927409947863431	-0.9190789008470094	-0.9190789008470091	-0.1445605466992293	0.1517936767147316	-0.1602910199612627	0.5888291160839492	6.798459654747964e-07	4.694632958527508e-07	-3.456705462459322e-06	-3.523434428397129e-07	8.004857591897531e-07	-9.866869377074967e-07	5.633245317971369e-07
1.53	-0.1678370562164496	-0.103254668147486	0.7975029265782361	1.035060086665105	-0.3138620295671633	-0.1274781977374174	-0.8266915339416614	0.8144565956815306	0.8144565956815293	-0.07948892930805979	-0.1743787120593698	0.004089335119167559	-0.01901629902792077	0.8269279547613909	0.4233394168136202	0.7008737847145379	-3.151189536345615	0.06242911219486403	-0.6744277721254366	0.8662389272883781	-2.280920253083911	-2.280920253083892	-0.2369614378091258	0.006332786483832518	-0.08137931862558545	0.04648501499651482	-0.3077381505692676	-0.001378970082998263	-0.006500331011950767	-0.1887433597633089	0.1757396822304825	0.05779653068624981	0.3398727689901083	15.71506479498251	-27.73610452144138	3.834487764880289	-24.76334343024117	-647.9235122072837	-76.18977444128721	-13.92649088017751	0.6575426096090177	1.365025744140292	-1.022608838042825	-1.239961098924735	0.5576702566715446	-0.2524892281141891	2.839666299651331	-0.7392882982232224	-0.73928829822463	-0.2941790670097653	0.1391781923765435	-0.1247728912566421	0.5304477023898935	6.792253769168659e-07	6.219160188743755e-07	-3.306556620778263e-06	-3.353696609417643e-07	8.54611491213115e-07	-8.80727806359717e-07	5.656646586112635e-07
